<?xml version="1.0" encoding="UTF-8" standalone="no"?>
<svg
        xmlns:dc="http://purl.org/dc/elements/1.1/"
        xmlns:cc="http://creativecommons.org/ns#"
        xmlns:rdf="http://www.w3.org/1999/02/22-rdf-syntax-ns#"
        xmlns="http://www.w3.org/2000/svg"
        xmlns:sodipodi="http://sodipodi.sourceforge.net/DTD/sodipodi-0.dtd"
        xmlns:inkscape="http://www.inkscape.org/namespaces/inkscape"
        version="1.1"
        id="mdi-chart-scatter-plot"
        width="24"
        height="24"
        viewBox="0 0 24 24"
        sodipodi:docname="chart-scatter-plot-white.svg"
        inkscape:version="1.0.2-2 (e86c870879, 2021-01-15)">
  <metadata
     id="metadata927">
    <rdf:RDF>
      <cc:Work
         rdf:about="">
        <dc:format>image/svg+xml</dc:format>
        <dc:type
           rdf:resource="http://purl.org/dc/dcmitype/StillImage" />
        <dc:title></dc:title>
      </cc:Work>
    </rdf:RDF>
  </metadata>
  <defs
     id="defs925" />
  <sodipodi:namedview
     pagecolor="#ffffff"
     bordercolor="#666666"
     borderopacity="1"
     objecttolerance="10"
     gridtolerance="10"
     guidetolerance="10"
     inkscape:pageopacity="0"
     inkscape:pageshadow="2"
     inkscape:window-width="1619"
     inkscape:window-height="980"
     id="namedview923"
     showgrid="false"
     inkscape:zoom="30.625"
     inkscape:cx="12"
     inkscape:cy="12"
     inkscape:window-x="0"
     inkscape:window-y="0"
     inkscape:window-maximized="0"
     inkscape:current-layer="mdi-chart-scatter-plot" />
  <path
     d="M2,2H4V20H22V22H2V2M9,10A3,3 0 0,1 12,13A3,3 0 0,1 9,16A3,3 0 0,1 6,13A3,3 0 0,1 9,10M13,2A3,3 0 0,1 16,5A3,3 0 0,1 13,8A3,3 0 0,1 10,5A3,3 0 0,1 13,2M18,12A3,3 0 0,1 21,15A3,3 0 0,1 18,18A3,3 0 0,1 15,15A3,3 0 0,1 18,12Z"
     id="path920"
     style="fill:#ffffff" />
</svg>
