<?xml version="1.0" encoding="UTF-8" standalone="no"?>
<svg
        xmlns:dc="http://purl.org/dc/elements/1.1/"
        xmlns:cc="http://creativecommons.org/ns#"
        xmlns:rdf="http://www.w3.org/1999/02/22-rdf-syntax-ns#"
        xmlns="http://www.w3.org/2000/svg"
        xmlns:sodipodi="http://sodipodi.sourceforge.net/DTD/sodipodi-0.dtd"
        xmlns:inkscape="http://www.inkscape.org/namespaces/inkscape"
        version="1.1"
        id="mdi-close-circle-outline"
        width="24"
        height="24"
        viewBox="0 0 24 24"
        sodipodi:docname="close-circle-outline-white.svg"
        inkscape:version="1.0.2-2 (e86c870879, 2021-01-15)">
  <metadata
     id="metadata901">
    <rdf:RDF>
      <cc:Work
         rdf:about="">
        <dc:format>image/svg+xml</dc:format>
        <dc:type
           rdf:resource="http://purl.org/dc/dcmitype/StillImage" />
        <dc:title></dc:title>
      </cc:Work>
    </rdf:RDF>
  </metadata>
  <defs
     id="defs899" />
  <sodipodi:namedview
     pagecolor="#ffffff"
     bordercolor="#666666"
     borderopacity="1"
     objecttolerance="10"
     gridtolerance="10"
     guidetolerance="10"
     inkscape:pageopacity="0"
     inkscape:pageshadow="2"
     inkscape:window-width="1623"
     inkscape:window-height="925"
     id="namedview897"
     showgrid="false"
     inkscape:zoom="28.625"
     inkscape:cx="12"
     inkscape:cy="12"
     inkscape:window-x="0"
     inkscape:window-y="0"
     inkscape:window-maximized="0"
     inkscape:current-layer="mdi-close-circle-outline" />
  <path
     d="M12,20C7.59,20 4,16.41 4,12C4,7.59 7.59,4 12,4C16.41,4 20,7.59 20,12C20,16.41 16.41,20 12,20M12,2C6.47,2 2,6.47 2,12C2,17.53 6.47,22 12,22C17.53,22 22,17.53 22,12C22,6.47 17.53,2 12,2M14.59,8L12,10.59L9.41,8L8,9.41L10.59,12L8,14.59L9.41,16L12,13.41L14.59,16L16,14.59L13.41,12L16,9.41L14.59,8Z"
     id="path894"
     style="fill:#ffffff" />
</svg>
