<?xml version="1.0" encoding="UTF-8" standalone="no"?>
<svg
        xmlns:dc="http://purl.org/dc/elements/1.1/"
        xmlns:cc="http://creativecommons.org/ns#"
        xmlns:rdf="http://www.w3.org/1999/02/22-rdf-syntax-ns#"
        xmlns="http://www.w3.org/2000/svg"
        xmlns:sodipodi="http://sodipodi.sourceforge.net/DTD/sodipodi-0.dtd"
        xmlns:inkscape="http://www.inkscape.org/namespaces/inkscape"
        version="1.1"
        id="mdi-file-remove-outline"
        width="24"
        height="24"
        viewBox="0 0 24 24"
        sodipodi:docname="file-remove-outline-grey.svg"
        inkscape:version="1.0.2-2 (e86c870879, 2021-01-15)">
  <metadata
     id="metadata881">
    <rdf:RDF>
      <cc:Work
         rdf:about="">
        <dc:format>image/svg+xml</dc:format>
        <dc:type
           rdf:resource="http://purl.org/dc/dcmitype/StillImage" />
        <dc:title />
      </cc:Work>
    </rdf:RDF>
  </metadata>
  <defs
     id="defs879" />
  <sodipodi:namedview
     pagecolor="#ffffff"
     bordercolor="#666666"
     borderopacity="1"
     objecttolerance="10"
     gridtolerance="10"
     guidetolerance="10"
     inkscape:pageopacity="0"
     inkscape:pageshadow="2"
     inkscape:window-width="1717"
     inkscape:window-height="969"
     id="namedview877"
     showgrid="false"
     inkscape:zoom="35.416667"
     inkscape:cx="12"
     inkscape:cy="12"
     inkscape:window-x="29"
     inkscape:window-y="5"
     inkscape:window-maximized="0"
     inkscape:current-layer="mdi-file-remove-outline"
     inkscape:document-rotation="0" />
  <path
     d="M14 2H6C4.89 2 4 2.9 4 4V20C4 21.11 4.89 22 6 22H18C19.11 22 20 21.11 20 20V8L14 2M18 20H6V4H13V9H18V20M11.95 15.46L14.08 17.58L12.66 19L10.54 16.87L8.42 19L7 17.58L9.13 15.46L7 13.34L8.42 11.92L10.54 14.05L12.66 11.92L14.08 13.34L11.95 15.46Z"
     id="path874"
     style="fill:#666666" />
</svg>
