<?xml version="1.0" encoding="UTF-8" standalone="no"?>
<svg
        xmlns:dc="http://purl.org/dc/elements/1.1/"
        xmlns:cc="http://creativecommons.org/ns#"
        xmlns:rdf="http://www.w3.org/1999/02/22-rdf-syntax-ns#"
        xmlns="http://www.w3.org/2000/svg"
        xmlns:sodipodi="http://sodipodi.sourceforge.net/DTD/sodipodi-0.dtd"
        xmlns:inkscape="http://www.inkscape.org/namespaces/inkscape"
        version="1.1"
        id="mdi-file-table-box-outline"
        width="24"
        height="24"
        viewBox="0 0 24 24"
        sodipodi:docname="file-table-box-outline-white.svg"
        inkscape:version="1.0.2-2 (e86c870879, 2021-01-15)">
  <metadata
     id="metadata867">
    <rdf:RDF>
      <cc:Work
         rdf:about="">
        <dc:format>image/svg+xml</dc:format>
        <dc:type
           rdf:resource="http://purl.org/dc/dcmitype/StillImage" />
        <dc:title></dc:title>
      </cc:Work>
    </rdf:RDF>
  </metadata>
  <defs
     id="defs865" />
  <sodipodi:namedview
     pagecolor="#ffffff"
     bordercolor="#666666"
     borderopacity="1"
     objecttolerance="10"
     gridtolerance="10"
     guidetolerance="10"
     inkscape:pageopacity="0"
     inkscape:pageshadow="2"
     inkscape:window-width="1425"
     inkscape:window-height="807"
     id="namedview863"
     showgrid="false"
     inkscape:zoom="28.5"
     inkscape:cx="12"
     inkscape:cy="12"
     inkscape:window-x="0"
     inkscape:window-y="0"
     inkscape:window-maximized="0"
     inkscape:current-layer="mdi-file-table-box-outline" />
  <path
     d="M19 3H5C3.89 3 3 3.89 3 5V19C3 20.11 3.89 21 5 21H19C20.11 21 21 20.11 21 19V5C21 3.89 20.11 3 19 3M19 19H5V5H19V19M9 18H6V16H9V18M13 18H10V16H13V18M9 15H6V13H9V15M13 15H10V13H13V15M9 12H6V10H9V12M13 12H10V10H13V12Z"
     id="path860"
     style="fill:#ffffff" />
</svg>
