<?xml version="1.0" encoding="UTF-8" standalone="no"?>
<svg
        xmlns:dc="http://purl.org/dc/elements/1.1/"
        xmlns:cc="http://creativecommons.org/ns#"
        xmlns:rdf="http://www.w3.org/1999/02/22-rdf-syntax-ns#"
        xmlns="http://www.w3.org/2000/svg"
        xmlns:sodipodi="http://sodipodi.sourceforge.net/DTD/sodipodi-0.dtd"
        xmlns:inkscape="http://www.inkscape.org/namespaces/inkscape"
        version="1.1"
        id="mdi-google-spreadsheet"
        width="24"
        height="24"
        viewBox="0 0 24 24"
        sodipodi:docname="google-spreadsheet-white.svg"
        inkscape:version="1.0.2-2 (e86c870879, 2021-01-15)">
  <metadata
     id="metadata953">
    <rdf:RDF>
      <cc:Work
         rdf:about="">
        <dc:format>image/svg+xml</dc:format>
        <dc:type
           rdf:resource="http://purl.org/dc/dcmitype/StillImage" />
        <dc:title></dc:title>
      </cc:Work>
    </rdf:RDF>
  </metadata>
  <defs
     id="defs951" />
  <sodipodi:namedview
     pagecolor="#ffffff"
     bordercolor="#666666"
     borderopacity="1"
     objecttolerance="10"
     gridtolerance="10"
     guidetolerance="10"
     inkscape:pageopacity="0"
     inkscape:pageshadow="2"
     inkscape:window-width="1385"
     inkscape:window-height="885"
     id="namedview949"
     showgrid="false"
     inkscape:zoom="32.916667"
     inkscape:cx="12"
     inkscape:cy="16.336013"
     inkscape:window-x="0"
     inkscape:window-y="0"
     inkscape:window-maximized="0"
     inkscape:current-layer="mdi-google-spreadsheet" />
  <path
     d="M19,11V9H11V5H9V9H5V11H9V19H11V11H19M19,3C19.5,3 20,3.2 20.39,3.61C20.8,4 21,4.5 21,5V19C21,19.5 20.8,20 20.39,20.39C20,20.8 19.5,21 19,21H5C4.5,21 4,20.8 3.61,20.39C3.2,20 3,19.5 3,19V5C3,4.5 3.2,4 3.61,3.61C4,3.2 4.5,3 5,3H19Z"
     id="path946"
     style="fill:#ffffff" />
</svg>
