<?xml version="1.0" encoding="UTF-8" standalone="no"?>
<svg
   xmlns:dc="http://purl.org/dc/elements/1.1/"
   xmlns:cc="http://creativecommons.org/ns#"
   xmlns:rdf="http://www.w3.org/1999/02/22-rdf-syntax-ns#"
   xmlns:svg="http://www.w3.org/2000/svg"
   xmlns="http://www.w3.org/2000/svg"
   xmlns:sodipodi="http://sodipodi.sourceforge.net/DTD/sodipodi-0.dtd"
   xmlns:inkscape="http://www.inkscape.org/namespaces/inkscape"
   version="1.1"
   width="24"
   height="24"
   viewBox="0 0 24 24"
   id="svg871"
   sodipodi:docname="invert_own.svg"
   inkscape:version="1.0.2-2 (e86c870879, 2021-01-15)">
  <metadata
     id="metadata877">
    <rdf:RDF>
      <cc:Work
         rdf:about="">
        <dc:format>image/svg+xml</dc:format>
        <dc:type
           rdf:resource="http://purl.org/dc/dcmitype/StillImage" />
        <dc:title />
      </cc:Work>
    </rdf:RDF>
  </metadata>
  <defs
     id="defs875" />
  <sodipodi:namedview
     pagecolor="#ffffff"
     bordercolor="#666666"
     borderopacity="1"
     objecttolerance="10"
     gridtolerance="10"
     guidetolerance="10"
     inkscape:pageopacity="0"
     inkscape:pageshadow="2"
     inkscape:window-width="1358"
     inkscape:window-height="927"
     id="namedview873"
     showgrid="false"
     inkscape:zoom="12.521682"
     inkscape:cx="22.200883"
     inkscape:cy="12.69278"
     inkscape:window-x="476"
     inkscape:window-y="55"
     inkscape:window-maximized="0"
     inkscape:current-layer="svg871"
     inkscape:document-rotation="0" />
  <path
     id="path1451"
     style="stroke-width:0.812468"
     d="m 5.9086181,2.0811647 c -2.2861249,0 -4.1421232,1.7863062 -4.1421232,3.9858465 v 6.3758668 c 0,2.199539 1.8559983,3.983987 4.1421232,3.983987 H 7.321002 v -4.621946 c 0,-2.1995404 1.854135,-3.9858464 4.14026,-3.9858464 h 5.215386 V 6.0670112 c 0,-2.1995403 -1.855998,-3.9858465 -4.142123,-3.9858465 z" />
  <path
     d="m 12.545747,9.1785429 h 5.921856 c 2.043043,0 3.70116,1.6002091 3.70116,3.5718951 v 5.715032 c 0,1.971686 -1.658117,3.571897 -3.70116,3.571897 h -5.921856 c -2.043034,0 -3.70116,-1.600211 -3.70116,-3.571897 v -5.715032 c 0,-1.971686 1.658126,-3.5718951 3.70116,-3.5718951 m 0,1.4287581 c -1.22878,0 -2.220696,0.957267 -2.220696,2.143137 v 5.715032 c 0,1.185871 0.991916,2.143138 2.220696,2.143138 h 5.921856 c 1.22879,0 2.220696,-0.957267 2.220696,-2.143138 v -5.715032 c 0,-1.18587 -0.991906,-2.143137 -2.220696,-2.143137 z"
     id="path1462"
     style="stroke-width:0.727191" />
</svg>
