<?xml version="1.0" encoding="UTF-8" standalone="no"?>
<svg
        xmlns:dc="http://purl.org/dc/elements/1.1/"
        xmlns:cc="http://creativecommons.org/ns#"
        xmlns:rdf="http://www.w3.org/1999/02/22-rdf-syntax-ns#"
        xmlns="http://www.w3.org/2000/svg"
        xmlns:sodipodi="http://sodipodi.sourceforge.net/DTD/sodipodi-0.dtd"
        xmlns:inkscape="http://www.inkscape.org/namespaces/inkscape"
        version="1.1"
        id="mdi-update"
        width="24"
        height="24"
        viewBox="0 0 24 24"
        sodipodi:docname="update-white.svg"
        inkscape:version="1.0.2-2 (e86c870879, 2021-01-15)">
  <metadata
     id="metadata875">
    <rdf:RDF>
      <cc:Work
         rdf:about="">
        <dc:format>image/svg+xml</dc:format>
        <dc:type
           rdf:resource="http://purl.org/dc/dcmitype/StillImage" />
        <dc:title></dc:title>
      </cc:Work>
    </rdf:RDF>
  </metadata>
  <defs
     id="defs873" />
  <sodipodi:namedview
     pagecolor="#ffffff"
     bordercolor="#666666"
     borderopacity="1"
     objecttolerance="10"
     gridtolerance="10"
     guidetolerance="10"
     inkscape:pageopacity="0"
     inkscape:pageshadow="2"
     inkscape:window-width="1530"
     inkscape:window-height="931"
     id="namedview871"
     showgrid="false"
     inkscape:zoom="28.416667"
     inkscape:cx="12"
     inkscape:cy="12"
     inkscape:window-x="0"
     inkscape:window-y="0"
     inkscape:window-maximized="0"
     inkscape:current-layer="mdi-update" />
  <path
     d="M21,10.12H14.22L16.96,7.3C14.23,4.6 9.81,4.5 7.08,7.2C4.35,9.91 4.35,14.28 7.08,17C9.81,19.7 14.23,19.7 16.96,17C18.32,15.65 19,14.08 19,12.1H21C21,14.08 20.12,16.65 18.36,18.39C14.85,21.87 9.15,21.87 5.64,18.39C2.14,14.92 2.11,9.28 5.62,5.81C9.13,2.34 14.76,2.34 18.27,5.81L21,3V10.12M12.5,8V12.25L16,14.33L15.28,15.54L11,13V8H12.5Z"
     id="path868"
     style="fill:#ffffff;fill-opacity:1" />
</svg>
