<?xml version="1.0" encoding="UTF-8" standalone="no"?>
<svg
   xmlns:dc="http://purl.org/dc/elements/1.1/"
   xmlns:cc="http://creativecommons.org/ns#"
   xmlns:rdf="http://www.w3.org/1999/02/22-rdf-syntax-ns#"
   xmlns:svg="http://www.w3.org/2000/svg"
   xmlns="http://www.w3.org/2000/svg"
   xmlns:sodipodi="http://sodipodi.sourceforge.net/DTD/sodipodi-0.dtd"
   xmlns:inkscape="http://www.inkscape.org/namespaces/inkscape"
   version="1.1"
   width="24"
   height="24"
   viewBox="0 0 24 24"
   id="svg845"
   sodipodi:docname="content-paste-func_own.svg"
   inkscape:version="1.0.2-2 (e86c870879, 2021-01-15)">
  <metadata
     id="metadata851">
    <rdf:RDF>
      <cc:Work
         rdf:about="">
        <dc:format>image/svg+xml</dc:format>
        <dc:type
           rdf:resource="http://purl.org/dc/dcmitype/StillImage" />
      </cc:Work>
    </rdf:RDF>
  </metadata>
  <defs
     id="defs849" />
  <sodipodi:namedview
     pagecolor="#ffffff"
     bordercolor="#666666"
     borderopacity="1"
     objecttolerance="10"
     gridtolerance="10"
     guidetolerance="10"
     inkscape:pageopacity="0"
     inkscape:pageshadow="2"
     inkscape:window-width="1559"
     inkscape:window-height="927"
     id="namedview847"
     showgrid="false"
     inkscape:zoom="23.208333"
     inkscape:cx="12"
     inkscape:cy="12"
     inkscape:window-x="0"
     inkscape:window-y="0"
     inkscape:window-maximized="0"
     inkscape:current-layer="svg845" />
  <path
     id="path843"
     d="M 12 0 C 10.7 0 9.5996875 0.84 9.1796875 2 L 5 2 A 2 2 0 0 0 3 4 L 3 20 A 2 2 0 0 0 5 22 L 8.7246094 22 L 8.7246094 20 L 5 20 L 5 4 L 7 4 L 7 7 L 17 7 L 17 4 L 19 4 L 19 12.517578 L 21 12.517578 L 21 4 A 2 2 0 0 0 19 2 L 14.820312 2 C 14.400313 0.84 13.3 0 12 0 z M 12 2 A 1 1 0 0 1 13 3 A 1 1 0 0 1 12 4 A 1 1 0 0 1 11 3 A 1 1 0 0 1 12 2 z " />
  <text
     xml:space="preserve"
     style="font-size:8.23937px;line-height:1.25;font-family:sans-serif;stroke-width:1.02992"
     x="11.352931"
     y="20.842772"
     id="text881"
     transform="scale(1.0118915,0.98824824)"><tspan
       sodipodi:role="line"
       id="tspan879"
       x="11.352931"
       y="20.842772"
       style="font-style:italic;font-variant:normal;font-weight:bold;font-stretch:normal;font-size:12.3591px;font-family:Cambria;-inkscape-font-specification:'Cambria Bold Italic';stroke-width:1.02992">fx</tspan></text>
</svg>
