<?xml version="1.0" encoding="UTF-8" standalone="no"?>
<svg
   xmlns:dc="http://purl.org/dc/elements/1.1/"
   xmlns:cc="http://creativecommons.org/ns#"
   xmlns:rdf="http://www.w3.org/1999/02/22-rdf-syntax-ns#"
   xmlns:svg="http://www.w3.org/2000/svg"
   xmlns="http://www.w3.org/2000/svg"
   xmlns:sodipodi="http://sodipodi.sourceforge.net/DTD/sodipodi-0.dtd"
   xmlns:inkscape="http://www.inkscape.org/namespaces/inkscape"
   aria-hidden="true"
   focusable="false"
   data-prefix="fas"
   data-icon="fill"
   class="svg-inline--fa fa-fill fa-w-16"
   role="img"
   viewBox="0 0 512 512"
   version="1.1"
   id="svg4368"
   sodipodi:docname="fill-solid-grey.svg"
   inkscape:version="1.0.2-2 (e86c870879, 2021-01-15)">
  <metadata
     id="metadata4374">
    <rdf:RDF>
      <cc:Work
         rdf:about="">
        <dc:format>image/svg+xml</dc:format>
        <dc:type
           rdf:resource="http://purl.org/dc/dcmitype/StillImage" />
        <dc:title></dc:title>
      </cc:Work>
    </rdf:RDF>
  </metadata>
  <defs
     id="defs4372" />
  <sodipodi:namedview
     pagecolor="#ffffff"
     bordercolor="#666666"
     borderopacity="1"
     objecttolerance="10"
     gridtolerance="10"
     guidetolerance="10"
     inkscape:pageopacity="0"
     inkscape:pageshadow="2"
     inkscape:window-width="1920"
     inkscape:window-height="1017"
     id="namedview4370"
     showgrid="false"
     inkscape:zoom="1.6601562"
     inkscape:cx="256"
     inkscape:cy="256"
     inkscape:window-x="1912"
     inkscape:window-y="-8"
     inkscape:window-maximized="1"
     inkscape:current-layer="svg4368" />
  <path
     fill="currentColor"
     d="M502.63 217.06L294.94 9.37C288.69 3.12 280.5 0 272.31 0s-16.38 3.12-22.62 9.37l-81.58 81.58L81.93 4.77c-6.24-6.25-16.38-6.25-22.62 0L36.69 27.38c-6.24 6.25-6.24 16.38 0 22.63l86.19 86.18-94.76 94.76c-37.49 37.49-37.49 98.26 0 135.75l117.19 117.19c18.75 18.74 43.31 28.12 67.87 28.12 24.57 0 49.13-9.37 67.88-28.12l221.57-221.57c12.49-12.5 12.49-32.76 0-45.26zm-116.22 70.97H65.93c1.36-3.84 3.57-7.98 7.43-11.83l13.15-13.15 81.61-81.61 58.61 58.6c12.49 12.49 32.75 12.49 45.24 0 12.49-12.49 12.49-32.75 0-45.24l-58.61-58.6 58.95-58.95 162.45 162.44-48.35 48.34z"
     id="path4366"
     style="fill:#b3b3b3" />
</svg>
