<?xml version="1.0" encoding="UTF-8" standalone="no"?>
<svg
   xmlns:dc="http://purl.org/dc/elements/1.1/"
   xmlns:cc="http://creativecommons.org/ns#"
   xmlns:rdf="http://www.w3.org/1999/02/22-rdf-syntax-ns#"
   xmlns:svg="http://www.w3.org/2000/svg"
   xmlns="http://www.w3.org/2000/svg"
   xmlns:sodipodi="http://sodipodi.sourceforge.net/DTD/sodipodi-0.dtd"
   xmlns:inkscape="http://www.inkscape.org/namespaces/inkscape"
   version="1.1"
   width="24"
   height="24"
   viewBox="0 0 24 24"
   id="svg871"
   sodipodi:docname="invert_own.svg"
   inkscape:version="1.0.2-2 (e86c870879, 2021-01-15)">
  <metadata
     id="metadata877">
    <rdf:RDF>
      <cc:Work
         rdf:about="">
        <dc:format>image/svg+xml</dc:format>
        <dc:type
           rdf:resource="http://purl.org/dc/dcmitype/StillImage" />
        <dc:title></dc:title>
      </cc:Work>
    </rdf:RDF>
  </metadata>
  <defs
     id="defs875" />
  <sodipodi:namedview
     pagecolor="#ffffff"
     bordercolor="#666666"
     borderopacity="1"
     objecttolerance="10"
     gridtolerance="10"
     guidetolerance="10"
     inkscape:pageopacity="0"
     inkscape:pageshadow="2"
     inkscape:window-width="1358"
     inkscape:window-height="927"
     id="namedview873"
     showgrid="false"
     inkscape:zoom="17.708333"
     inkscape:cx="9.775727"
     inkscape:cy="7.3904241"
     inkscape:window-x="1978"
     inkscape:window-y="19"
     inkscape:window-maximized="0"
     inkscape:current-layer="svg871" />
  <path
     d="m 12.367059,1.6164709 h 5.816471 c 2.006682,0 3.635293,1.6075296 3.635293,3.5882366 v 5.7411765 c 0,1.980706 -1.628611,3.588235 -3.635293,3.588235 h -5.816471 c -2.006682,0 -3.6352943,-1.607529 -3.6352943,-3.588235 V 5.2047075 c 0,-1.980707 1.6286123,-3.5882366 3.6352943,-3.5882366 z"
     id="path1451"
     style="stroke-width:0.722337" />
  <path
     d="m 6.2251229,7.4894119 h 6.3642691 c 2.195673,0 3.977667,1.7480784 3.977667,3.9019611 v 6.243135 c 0,2.153883 -1.781994,3.901962 -3.977667,3.901962 H 6.2251229 c -2.1956713,0 -3.9776675,-1.748079 -3.9776675,-3.901962 v -6.243135 c 0,-2.1538827 1.7819962,-3.9019611 3.9776675,-3.9019611 m 0,1.5607844 c -1.3205853,0 -2.3866001,1.0457257 -2.3866001,2.3411767 v 6.243135 c 0,1.295453 1.0660148,2.341177 2.3866001,2.341177 h 6.3642691 c 1.320585,0 2.386601,-1.045724 2.386601,-2.341177 v -6.243135 c 0,-1.295451 -1.066016,-2.3411767 -2.386601,-2.3411767 z"
     id="path1462"
     style="stroke-width:0.787927" />
</svg>
