<?xml version="1.0" encoding="UTF-8" standalone="no"?>
<svg
   xmlns:dc="http://purl.org/dc/elements/1.1/"
   xmlns:cc="http://creativecommons.org/ns#"
   xmlns:rdf="http://www.w3.org/1999/02/22-rdf-syntax-ns#"
   xmlns:svg="http://www.w3.org/2000/svg"
   xmlns="http://www.w3.org/2000/svg"
   xmlns:sodipodi="http://sodipodi.sourceforge.net/DTD/sodipodi-0.dtd"
   xmlns:inkscape="http://www.inkscape.org/namespaces/inkscape"
   aria-hidden="true"
   focusable="false"
   data-prefix="fas"
   data-icon="snowplow"
   class="svg-inline--fa fa-snowplow fa-w-20"
   role="img"
   viewBox="0 0 640 512"
   version="1.1"
   id="svg6111"
   sodipodi:docname="snowplow-solid-grey.svg"
   inkscape:version="1.0.2-2 (e86c870879, 2021-01-15)">
  <metadata
     id="metadata6117">
    <rdf:RDF>
      <cc:Work
         rdf:about="">
        <dc:format>image/svg+xml</dc:format>
        <dc:type
           rdf:resource="http://purl.org/dc/dcmitype/StillImage" />
        <dc:title></dc:title>
      </cc:Work>
    </rdf:RDF>
  </metadata>
  <defs
     id="defs6115" />
  <sodipodi:namedview
     pagecolor="#ffffff"
     bordercolor="#666666"
     borderopacity="1"
     objecttolerance="10"
     gridtolerance="10"
     guidetolerance="10"
     inkscape:pageopacity="0"
     inkscape:pageshadow="2"
     inkscape:window-width="1920"
     inkscape:window-height="1017"
     id="namedview6113"
     showgrid="false"
     inkscape:zoom="1.628125"
     inkscape:cx="320"
     inkscape:cy="256"
     inkscape:window-x="-8"
     inkscape:window-y="-8"
     inkscape:window-maximized="1"
     inkscape:current-layer="svg6111" />
  <path
     fill="currentColor"
     d="M120 376c-13.3 0-24 10.7-24 24s10.7 24 24 24 24-10.7 24-24-10.7-24-24-24zm80 0c-13.3 0-24 10.7-24 24s10.7 24 24 24 24-10.7 24-24-10.7-24-24-24zm80 0c-13.3 0-24 10.7-24 24s10.7 24 24 24 24-10.7 24-24-10.7-24-24-24zm80 0c-13.3 0-24 10.7-24 24s10.7 24 24 24 24-10.7 24-24-10.7-24-24-24zm238.6 49.4c-14.5-14.5-22.6-34.1-22.6-54.6V269.2c0-20.5 8.1-40.1 22.6-54.6l36.7-36.7c6.2-6.2 6.2-16.4 0-22.6l-22.6-22.6c-6.2-6.2-16.4-6.2-22.6 0l-36.7 36.7c-26.5 26.5-41.4 62.4-41.4 99.9V288h-64v-50.9c0-8.7-1.8-17.2-5.2-25.2L364.5 29.1C356.9 11.4 339.6 0 320.3 0H176c-26.5 0-48 21.5-48 48v112h-16c-26.5 0-48 21.5-48 48v91.2C26.3 317.2 0 355.4 0 400c0 61.9 50.1 112 112 112h256c61.9 0 112-50.1 112-112 0-17.3-4.2-33.4-11.2-48H512v18.7c0 37.5 14.9 73.4 41.4 99.9l36.7 36.7c6.2 6.2 16.4 6.2 22.6 0l22.6-22.6c6.2-6.2 6.2-16.4 0-22.6l-36.7-36.7zM192 64h117.8l68.6 160H256l-64-64V64zm176 384H112c-26.5 0-48-21.5-48-48s21.5-48 48-48h256c26.5 0 48 21.5 48 48s-21.5 48-48 48z"
     id="path6109"
     style="fill:#b3b3b3" />
</svg>
